<svg width="32" height="32" viewBox="0 0 32 32" fill="none" xmlns="http://www.w3.org/2000/svg">
  <defs>
    <linearGradient id="g" x1="6" y1="4" x2="26" y2="28" gradientUnits="userSpaceOnUse">
      <stop stop-color="#60A5FA"/>
      <stop offset="1" stop-color="#2563EB"/>
    </linearGradient>
  </defs>
  <path
    d="M16 2.5c3.4 2.2 6.9 3.3 10.8 3.8v9.6c0 7.1-4.6 12.4-10.8 13.6C9.8 28.3 5.2 23 5.2 15.9V6.3C9.1 5.8 12.6 4.7 16 2.5Z"
    fill="url(#g)"
  />
  <path
    d="M16 6.2l1.5 3.3 3.6.4-2.7 2.3.8 3.5-3.2-1.8-3.2 1.8.8-3.5-2.7-2.3 3.6-.4L16 6.2Z"
    fill="#FBBF24"
  />
  <path
    d="M16 2.5c3.4 2.2 6.9 3.3 10.8 3.8v9.6c0 7.1-4.6 12.4-10.8 13.6C9.8 28.3 5.2 23 5.2 15.9V6.3C9.1 5.8 12.6 4.7 16 2.5Z"
    stroke="#0B1220"
    stroke-opacity="0.18"
  />
</svg>
